<?xml version="1.0" encoding="UTF-8"?>
<svg id="Layer_2" data-name="Layer 2" xmlns="http://www.w3.org/2000/svg" viewBox="0 0 239.09 239.2">
  <defs>
    <style>
      .cls-1 {
        fill: #84cc16;
        stroke-width: 0px;
      }
    </style>
  </defs>
  <g id="Layer_1-2" data-name="Layer 1">
    <g>
      <path class="cls-1" d="M119.48,239.19C55.4,239.5-.13,187.21,0,119.4.13,51.98,55.17,0,119.21,0c65.8,0,119.31,52.94,119.88,118.3.6,69.24-55.86,121.32-119.61,120.9ZM104.26,119.45c0,30.51.01,61.03-.04,91.54,0,1.7.47,2.38,2.2,2.63,11.48,1.66,22.86,1.09,34.14-1.45,50.29-11.33,82.36-61.08,72.04-111.68-9.96-48.79-56.79-81.83-106.2-74.97-1.8.25-2.18.92-2.18,2.6.05,30.44.03,60.88.04,91.32ZM79.62,205.27V33.97c-25.7,10.74-53.1,40.05-54.9,80.91-2.12,47.88,29.31,79.59,54.9,90.39Z"/>
      <path class="cls-1" d="M111.65,182.16c39.31,3.96,68.03-24.7,70.67-56.92,1.63-19.81-4.61-37.03-18.94-50.88-14.25-13.78-31.65-19.13-51.49-17.52v-24.36c.19-.06.44-.22.7-.23,26.75-1.41,50.05,6.75,69.05,25.76,14.71,14.72,23.06,32.63,24.95,53.49,4.28,47.3-28.5,85.89-70.54,94.11-7.48,1.46-15.03,1.7-22.6,1.31-.62-.03-1.73-.8-1.73-1.23-.11-7.78-.08-15.55-.08-23.53Z"/>
    </g>
  </g>
</svg>